HIERARCHY
ROOT Hips
{
	OFFSET -0.001795 -0.223333 0.028219
	CHANNELS 6 Xposition Yposition Zposition Zrotation Yrotation Xrotation 
	JOINT LeftUpLeg
	{
		OFFSET 0.069520 -0.091406 -0.006815
		CHANNELS 3 Zrotation Yrotation Xrotation
		JOINT LeftLeg
		{
			OFFSET 0.034277 -0.375199 -0.004496
			CHANNELS 3 Zrotation Yrotation Xrotation
			JOINT LeftFoot
			{
				OFFSET -0.013596 -0.397961 -0.043693
				CHANNELS 3 Zrotation Yrotation Xrotation
				JOINT LeftToe
				{
					OFFSET 0.026358 -0.055791 0.119288
					CHANNELS 3 Zrotation Yrotation Xrotation
					End Site
					{
						OFFSET 0.000000 0.000000 0.000000
					}
				}
			}
		}
	}
	JOINT RightUpLeg
	{
		OFFSET -0.067670 -0.090522 -0.004320
		CHANNELS 3 Zrotation Yrotation Xrotation
		JOINT RightLeg
		{
			OFFSET -0.038290 -0.382569 -0.008850
			CHANNELS 3 Zrotation Yrotation Xrotation
			JOINT RightFoot
			{
				OFFSET 0.015774 -0.398415 -0.042312
				CHANNELS 3 Zrotation Yrotation Xrotation
				JOINT RightToe
				{
					OFFSET -0.025372 -0.048144 0.123348
					CHANNELS 3 Zrotation Yrotation Xrotation
					End Site
					{
						OFFSET 0.000000 0.000000 0.000000
					}
				}
			}
		}
	}
	JOINT Spine
	{
		OFFSET -0.002533 0.108963 -0.026696
		CHANNELS 3 Zrotation Yrotation Xrotation
		JOINT Spine1
		{
			OFFSET 0.005487 0.135180 0.001092
			CHANNELS 3 Zrotation Yrotation Xrotation
			JOINT Spine2
			{
				OFFSET 0.001457 0.052922 0.025425
				CHANNELS 3 Zrotation Yrotation Xrotation
				JOINT Neck
				{
					OFFSET -0.002778 0.213870 -0.042857
					CHANNELS 3 Zrotation Yrotation Xrotation
					JOINT Head
					{
						OFFSET 0.005152 0.064970 0.051349
						CHANNELS 3 Zrotation Yrotation Xrotation
						End Site
						{
							OFFSET 0.000000 0.000000 0.000000
						}
					}
				}
				JOINT LeftShoulder
				{
					OFFSET 0.078845 0.121749 -0.034090
					CHANNELS 3 Zrotation Yrotation Xrotation
					JOINT LeftArm
					{
						OFFSET 0.090977 0.030469 -0.008868
						CHANNELS 3 Zrotation Yrotation Xrotation
						JOINT LeftForeArm
						{
							OFFSET 0.259612 -0.012772 -0.027456
							CHANNELS 3 Zrotation Yrotation Xrotation
							JOINT LeftHand
							{
								OFFSET 0.249234 0.008986 -0.001171
								CHANNELS 3 Zrotation Yrotation Xrotation
								End Site
								{
									OFFSET 0.000000 0.000000 0.000000
								}
							}
						}
					}
				}
				JOINT RightShoulder
				{
					OFFSET -0.081759 0.118833 -0.038615
					CHANNELS 3 Zrotation Yrotation Xrotation
					JOINT RightArm
					{
						OFFSET -0.096012 0.032551 -0.009143
						CHANNELS 3 Zrotation Yrotation Xrotation
						JOINT RightForeArm
						{
							OFFSET -0.253742 -0.013329 -0.021401
							CHANNELS 3 Zrotation Yrotation Xrotation
							JOINT RightHand
							{
								OFFSET -0.255298 0.007772 -0.005559
								CHANNELS 3 Zrotation Yrotation Xrotation
								End Site
								{
									OFFSET 0.000000 0.000000 0.000000
								}
							}
						}
					}
				}
			}
		}
	}
}
MOTION
Frames: 16
Frame Time: 0.050000
0.022256 0.946782 -0.323457 6.787154 -15.933725 15.918619 0.733680 -1.311121 -26.632237 -2.465883 0.523376 11.723458 -5.896517 -7.620664 10.743774 0.000000 0.000000 0.000000 -14.902526 2.097758 -37.784181 -1.441179 1.827217 20.656737 3.797109 -1.344744 15.654695 0.000000 0.000000 0.000000 15.624593 -6.396919 53.296439 3.391045 -1.565501 4.314014 2.081337 2.067439 7.609926 6.461616 -4.227709 -6.893238 0.000000 0.000000 0.000000 -0.953469 -17.185330 6.596294 -42.696009 -1.862394 -4.354849 -62.614060 -63.109716 45.358614 0.000000 0.000000 0.000000 -19.448978 17.604651 5.066420 25.297106 0.613947 -2.284819 -7.134398 71.928138 -3.848727 0.000000 0.000000 0.000000 
0.023352 0.947308 -0.324741 6.753752 -15.975125 16.187026 0.713560 -1.311177 -26.231335 -2.382715 0.466743 10.567566 -5.948883 -7.802210 10.573031 0.000000 0.000000 0.000000 -14.758405 2.137014 -37.745963 -1.598177 1.794733 19.969769 3.561209 -1.862545 15.734420 0.000000 0.000000 0.000000 15.117962 -6.151153 53.446239 3.327568 -1.536377 4.531398 1.977597 2.138279 7.406326 6.001269 -3.971142 -6.280090 0.000000 0.000000 0.000000 -1.686284 -17.247673 6.713170 -42.100623 -1.611365 -4.377612 -58.959352 -62.661739 42.163715 0.000000 0.000000 0.000000 -18.994203 17.163344 5.020594 25.098720 1.109898 -2.181703 -7.990023 72.141950 -4.421834 0.000000 0.000000 0.000000 
0.024387 0.947568 -0.325757 6.678634 -15.695009 16.327973 0.571122 -1.358075 -26.369458 -2.291516 0.427570 10.194721 -5.798235 -7.333727 11.042216 0.000000 0.000000 0.000000 -14.674464 2.115330 -37.701082 -1.834456 1.782029 19.375152 3.681991 -2.042235 16.579668 0.000000 0.000000 0.000000 14.735657 -6.041972 53.418088 3.345542 -1.562059 5.308355 1.820865 1.813931 6.853112 5.356322 -3.634552 -5.224612 0.000000 0.000000 0.000000 -2.583601 -17.316153 6.875433 -40.803149 -0.918015 -4.437382 -57.043696 -63.031061 40.999433 0.000000 0.000000 0.000000 -18.807741 17.185846 5.086683 25.478492 1.251738 -2.175968 -10.038759 73.151445 -6.093994 0.000000 0.000000 0.000000 
0.025357 0.947414 -0.326772 6.670332 -15.432050 16.234585 0.335333 -1.423773 -26.443343 -2.357219 0.429803 9.966036 -5.361841 -6.324950 11.666540 0.000000 0.000000 0.000000 -14.774235 2.059096 -37.798822 -1.642407 1.733744 19.470643 3.537564 -2.579636 17.207536 0.000000 0.000000 0.000000 14.615801 -6.053837 53.456817 3.045571 -1.421042 5.532835 1.586176 1.558674 6.952591 5.209992 -3.592720 -4.758310 0.000000 0.000000 0.000000 -2.423275 -17.197115 6.815325 -40.373571 -1.046749 -4.364415 -55.830681 -63.204189 40.275271 0.000000 0.000000 0.000000 -18.224909 16.684207 5.034234 25.291290 1.034968 -2.202663 -12.692726 74.522608 -8.312091 0.000000 0.000000 0.000000 
0.026298 0.947037 -0.328004 6.551629 -14.946445 15.940124 0.317008 -1.459116 -26.577230 -2.539157 0.471814 10.374777 -5.014834 -5.600248 11.891530 0.000000 0.000000 0.000000 -14.618321 2.009089 -37.691629 -1.674010 1.755635 19.725979 3.412302 -3.019648 17.788058 0.000000 0.000000 0.000000 14.290145 -6.018449 53.559489 3.068444 -1.447874 5.671181 1.551931 1.745061 7.130856 4.904145 -3.401944 -4.431807 0.000000 0.000000 0.000000 -2.135967 -16.870813 6.606613 -39.552658 -1.142974 -4.265907 -55.540593 -63.884761 40.445901 0.000000 0.000000 0.000000 -18.250544 16.451206 4.932719 25.494527 0.456480 -2.318798 -16.260183 75.841476 -11.124666 0.000000 0.000000 0.000000 
0.027206 0.946277 -0.329523 6.334046 -14.731541 15.768865 0.544031 -1.424982 -26.850497 -2.987892 0.594149 11.074452 -4.428699 -4.726206 11.518136 0.000000 0.000000 0.000000 -14.319577 2.055628 -37.899950 -1.660957 1.818942 20.386709 3.146008 -3.489785 17.819671 0.000000 0.000000 0.000000 13.809753 -5.799949 53.192389 2.834462 -1.335517 6.151466 1.853699 2.158660 7.070102 4.959434 -3.481096 -4.024756 0.000000 0.000000 0.000000 -1.811130 -16.903995 6.528835 -39.017819 -1.056133 -4.231443 -59.435679 -65.065100 44.135543 0.000000 0.000000 0.000000 -17.431790 16.430871 4.914691 24.765267 -0.495870 -2.388344 -22.596020 76.706597 -16.114908 0.000000 0.000000 0.000000 
0.027845 0.945705 -0.331507 6.271055 -14.222802 15.298310 0.512130 -1.466984 -26.977313 -3.076083 0.635350 12.027990 -4.198732 -4.437245 11.066228 0.000000 0.000000 0.000000 -14.234918 1.978788 -37.719889 -1.302469 1.796191 21.252505 2.530571 -4.248370 17.219590 0.000000 0.000000 0.000000 13.628167 -5.840399 53.283660 2.878128 -1.372188 6.153199 2.059215 2.356045 6.988754 5.070147 -3.604540 -3.631826 0.000000 0.000000 0.000000 -2.094213 -16.807419 6.482115 -37.817242 -1.214983 -4.069393 -59.949465 -66.810212 45.784663 0.000000 0.000000 0.000000 -17.661668 16.524906 4.871149 24.014118 -0.894736 -2.366597 -29.927403 76.464154 -21.712865 0.000000 0.000000 0.000000 
0.027943 0.944580 -0.333867 5.992560 -13.833831 14.837064 0.835858 -1.420426 -27.058163 -3.169742 0.690720 13.135657 -4.091626 -4.545521 10.141631 0.000000 0.000000 0.000000 -13.777887 2.025012 -37.820740 -1.332882 1.896753 22.218649 2.308767 -4.655553 17.356448 0.000000 0.000000 0.000000 13.262977 -5.725811 52.976005 2.850031 -1.373350 6.735099 2.308820 2.604657 6.647384 5.151450 -3.743887 -2.943873 0.000000 0.000000 0.000000 -2.316297 -16.546914 6.357548 -36.281858 -0.850700 -3.997363 -63.566906 -68.910325 50.272033 0.000000 0.000000 0.000000 -17.563830 16.773166 4.883275 22.732952 -0.879795 -2.219716 -36.348038 74.855472 -25.940819 0.000000 0.000000 0.000000 
0.027569 0.942728 -0.336642 5.961924 -13.260945 14.222537 0.877481 -1.448740 -27.036209 -3.265448 0.733496 14.045568 -3.916785 -4.456544 9.397240 0.000000 0.000000 0.000000 -13.889529 1.897214 -37.704008 -0.684118 1.805622 23.412391 1.780944 -5.144991 16.506690 0.000000 0.000000 0.000000 13.107882 -5.765024 52.664334 2.830169 -1.383141 7.192092 2.571101 3.012289 5.836561 5.707960 -4.314747 -1.720625 0.000000 0.000000 0.000000 -2.552597 -17.103826 6.534925 -34.756374 -0.416211 -3.893470 -71.154964 -71.090715 58.392631 0.000000 0.000000 0.000000 -17.247380 17.418052 4.985334 20.568738 -1.157755 -2.003284 -40.535899 72.137879 -27.593741 0.000000 0.000000 0.000000 
0.026731 0.940130 -0.339745 5.801219 -12.962711 13.430402 1.328537 -1.366702 -27.226793 -3.456412 0.848988 15.710080 -4.081592 -5.015273 8.583309 0.000000 0.000000 0.000000 -13.593076 1.918051 -37.803329 -0.435022 1.901603 25.186956 1.459536 -5.282062 15.551620 0.000000 0.000000 0.000000 12.696056 -5.587049 52.514953 2.909121 -1.441226 7.515653 2.810960 3.816781 5.331005 6.737192 -5.277517 -0.636565 0.000000 0.000000 0.000000 -2.953307 -17.189331 6.500160 -33.123824 -0.013880 -3.773200 -82.987376 -71.798108 69.426020 0.000000 0.000000 0.000000 -16.752439 18.586303 5.166322 18.190581 -1.247857 -1.756816 -42.189050 68.522010 -26.603611 0.000000 0.000000 0.000000 
0.025680 0.936917 -0.342850 5.711414 -12.692667 12.732439 1.450324 -1.352331 -26.972886 -3.384015 0.862668 16.639194 -3.860302 -5.185675 7.075794 0.000000 0.000000 0.000000 -13.661990 1.852887 -37.849855 0.115089 1.830504 26.369886 1.320609 -5.274111 15.048785 0.000000 0.000000 0.000000 12.334914 -5.427153 52.160392 3.014440 -1.517218 8.182761 3.136148 4.654924 4.388350 7.212797 -5.956587 1.126648 0.000000 0.000000 0.000000 -3.423910 -17.659593 6.616563 -32.266481 0.561014 -3.737410 -96.681227 -71.133698 81.631491 0.000000 0.000000 0.000000 -15.434695 19.917624 5.516223 15.187659 -0.790853 -1.408488 -42.535041 64.989696 -24.739524 0.000000 0.000000 0.000000 
0.024484 0.934353 -0.345693 5.626229 -12.544662 11.554124 1.720762 -1.288126 -26.364542 -3.462887 0.951485 17.994349 -3.794561 -5.647591 5.585824 0.000000 0.000000 0.000000 -13.257098 1.880580 -37.363300 0.297353 1.904403 27.639326 0.870077 -5.754324 14.202480 0.000000 0.000000 0.000000 11.804022 -5.135733 52.096553 3.383789 -1.747394 8.898223 3.410814 5.475773 3.602541 7.848144 -6.670857 2.059374 0.000000 0.000000 0.000000 -3.529023 -18.076031 6.661965 -32.199110 0.962975 -3.763965 -108.811515 -69.362788 91.952275 0.000000 0.000000 0.000000 -14.500230 21.259269 5.853153 12.960402 0.157033 -1.145662 -42.456207 62.428169 -23.143190 0.000000 0.000000 0.000000 
0.023390 0.932678 -0.347937 5.701921 -12.379630 10.621790 1.665672 -1.301407 -25.872007 -3.302304 0.953106 19.089797 -3.753065 -6.065699 4.366508 0.000000 0.000000 0.000000 -13.422473 1.770554 -36.843368 0.544215 1.891659 28.393717 1.133148 -4.977908 13.635175 0.000000 0.000000 0.000000 11.671467 -5.063225 51.837939 3.721447 -1.956348 9.393617 3.488016 6.133726 2.981214 8.323227 -7.177863 2.520912 0.000000 0.000000 0.000000 -4.012486 -18.476443 6.749719 -32.266413 0.892047 -3.705569 -116.726530 -67.361318 98.201029 0.000000 0.000000 0.000000 -13.715443 21.907718 6.058301 11.467846 1.769218 -0.954338 -40.009269 61.613527 -20.991113 0.000000 0.000000 0.000000 
0.022287 0.932150 -0.349787 5.922557 -12.097428 9.621297 1.489305 -1.343437 -25.212905 -3.264861 0.950037 19.503130 -3.875842 -6.274114 4.387567 0.000000 0.000000 0.000000 -13.648420 1.614179 -36.011190 0.840132 1.827968 28.904951 1.087008 -4.731845 12.965550 0.000000 0.000000 0.000000 11.786787 -5.121296 51.332730 4.093991 -2.194625 9.890277 3.297701 5.894085 2.628765 8.379813 -7.290930 2.823562 0.000000 0.000000 0.000000 -4.089815 -18.441810 6.727083 -31.764243 1.118231 -3.684588 -123.882493 -65.271425 104.437723 0.000000 0.000000 0.000000 -13.293770 22.641175 6.284380 11.143913 3.139807 -0.873279 -37.954847 61.808036 -19.845268 0.000000 0.000000 0.000000 
0.021067 0.932193 -0.351192 6.152141 -12.073318 8.808162 1.045175 -1.419434 -24.488669 -2.531925 0.742415 19.935470 -4.146077 -7.062083 3.797023 0.000000 0.000000 0.000000 -13.543588 1.596463 -35.580956 0.775683 1.914728 29.448143 0.884101 -5.109404 12.927811 0.000000 0.000000 0.000000 11.655477 -4.993073 50.882822 4.395145 -2.371001 9.846923 3.351026 5.945491 2.953562 8.308843 -7.245390 2.789871 0.000000 0.000000 0.000000 -3.348912 -17.991074 6.475892 -31.646308 1.144865 -3.702093 -126.862561 -63.750621 106.450103 0.000000 0.000000 0.000000 -13.316301 22.606461 6.231819 11.098640 3.896126 -0.846858 -34.043825 63.084705 -17.913339 0.000000 0.000000 0.000000 
0.019726 0.933176 -0.352176 6.327818 -11.998701 8.278915 0.785074 -1.454463 -23.766935 -2.442039 0.712414 19.904432 -3.912929 -6.803768 3.348741 0.000000 0.000000 0.000000 -13.820057 1.492186 -35.096367 0.922467 1.869615 29.513580 1.295297 -4.335487 13.011831 0.000000 0.000000 0.000000 11.726941 -4.974587 50.154089 4.710214 -2.556397 10.038017 3.145529 5.475068 2.858373 8.257542 -7.372310 3.612862 0.000000 0.000000 0.000000 -2.668694 -17.910092 6.426210 -31.127367 2.159314 -3.871831 -130.470383 -61.886206 109.319005 0.000000 0.000000 0.000000 -12.174912 23.222936 6.561654 10.429264 3.622038 -0.814993 -30.941568 65.173024 -16.840263 0.000000 0.000000 0.000000 
